<svg width="157" height="61" viewBox="0 0 157 61" fill="none" xmlns="http://www.w3.org/2000/svg">
<circle cx="23" cy="31" r="20" fill="#0164AC"/>
<ellipse cx="21.9879" cy="31" rx="18.9879" ry="20" fill="url(#paint0_linear)"/>
<path d="M17.1755 27.6654C14.2289 26.6385 10.3145 30.9458 8.72564 33.2278C8.1297 34.0834 7.68566 34.4257 8.72564 35.7949C10.0256 37.5064 11.9756 35.7949 13.0589 34.0834C14.1422 32.3719 17.1755 30.3889 19.5588 33.4416C22.2204 36.8508 22.3347 38.0472 26.492 36.2227C28.4419 35.367 31.0419 32.7997 29.9586 31.5161C28.8752 30.2325 26.7086 32.3719 23.892 33.8694C21.0754 35.367 20.8587 28.949 17.1755 27.6654Z" fill="white"/>
<path d="M30.3913 25.7398C27.9646 23.5148 24.1803 26.3816 22.5914 28.0931C21.5081 29.3767 21.7248 30.0186 22.5914 31.0883C23.4581 32.158 24.758 30.6604 27.7913 28.735C30.8246 26.8095 36.6745 37.9343 37.7578 36.8646C38.8411 35.7949 33.4245 28.521 30.3913 25.7398Z" fill="white"/>
<path d="M23.1748 20.5639C21.7514 19.4115 19.9722 21.5243 19.2606 22.7247C19.0323 23.0846 18.5489 23.8054 19.6164 24.8858C20.6839 25.9662 21.7514 25.9662 23.5307 24.5257C25.3099 23.0852 24.954 22.0045 23.1748 20.5639Z" fill="white"/>
<path d="M92.04 53.07C91.5733 53.07 91.1533 52.99 90.78 52.83C90.4067 52.6633 90.1133 52.43 89.9 52.13C89.6867 51.83 89.58 51.48 89.58 51.08H90.8C90.8267 51.38 90.9433 51.6267 91.15 51.82C91.3633 52.0133 91.66 52.11 92.04 52.11C92.4333 52.11 92.74 52.0167 92.96 51.83C93.18 51.6367 93.29 51.39 93.29 51.09C93.29 50.8567 93.22 50.6667 93.08 50.52C92.9467 50.3733 92.7767 50.26 92.57 50.18C92.37 50.1 92.09 50.0133 91.73 49.92C91.2767 49.8 90.9067 49.68 90.62 49.56C90.34 49.4333 90.1 49.24 89.9 48.98C89.7 48.72 89.6 48.3733 89.6 47.94C89.6 47.54 89.7 47.19 89.9 46.89C90.1 46.59 90.38 46.36 90.74 46.2C91.1 46.04 91.5167 45.96 91.99 45.96C92.6633 45.96 93.2133 46.13 93.64 46.47C94.0733 46.8033 94.3133 47.2633 94.36 47.85H93.1C93.08 47.5967 92.96 47.38 92.74 47.2C92.52 47.02 92.23 46.93 91.87 46.93C91.5433 46.93 91.2767 47.0133 91.07 47.18C90.8633 47.3467 90.76 47.5867 90.76 47.9C90.76 48.1133 90.8233 48.29 90.95 48.43C91.0833 48.5633 91.25 48.67 91.45 48.75C91.65 48.83 91.9233 48.9167 92.27 49.01C92.73 49.1367 93.1033 49.2633 93.39 49.39C93.6833 49.5167 93.93 49.7133 94.13 49.98C94.3367 50.24 94.44 50.59 94.44 51.03C94.44 51.3833 94.3433 51.7167 94.15 52.03C93.9633 52.3433 93.6867 52.5967 93.32 52.79C92.96 52.9767 92.5333 53.07 92.04 53.07ZM99.1152 48.42V51.47C99.1152 51.6767 99.1618 51.8267 99.2552 51.92C99.3552 52.0067 99.5218 52.05 99.7552 52.05H100.455V53H99.5552C99.0418 53 98.6485 52.88 98.3752 52.64C98.1018 52.4 97.9652 52.01 97.9652 51.47V48.42H97.3152V47.49H97.9652V46.12H99.1152V47.49H100.455V48.42H99.1152ZM108.496 47.49V53H107.356V52.35C107.176 52.5767 106.939 52.7567 106.646 52.89C106.359 53.0167 106.053 53.08 105.726 53.08C105.293 53.08 104.903 52.99 104.556 52.81C104.216 52.63 103.946 52.3633 103.746 52.01C103.553 51.6567 103.456 51.23 103.456 50.73V47.49H104.586V50.56C104.586 51.0533 104.709 51.4333 104.956 51.7C105.203 51.96 105.539 52.09 105.966 52.09C106.393 52.09 106.729 51.96 106.976 51.7C107.229 51.4333 107.356 51.0533 107.356 50.56V47.49H108.496ZM111.62 50.22C111.62 49.6667 111.733 49.1767 111.96 48.75C112.193 48.3233 112.507 47.9933 112.9 47.76C113.3 47.52 113.743 47.4 114.23 47.4C114.59 47.4 114.943 47.48 115.29 47.64C115.643 47.7933 115.923 48 116.13 48.26V45.6H117.28V53H116.13V52.17C115.943 52.4367 115.683 52.6567 115.35 52.83C115.023 53.0033 114.647 53.09 114.22 53.09C113.74 53.09 113.3 52.97 112.9 52.73C112.507 52.4833 112.193 52.1433 111.96 51.71C111.733 51.27 111.62 50.7733 111.62 50.22ZM116.13 50.24C116.13 49.86 116.05 49.53 115.89 49.25C115.737 48.97 115.533 48.7567 115.28 48.61C115.027 48.4633 114.753 48.39 114.46 48.39C114.167 48.39 113.893 48.4633 113.64 48.61C113.387 48.75 113.18 48.96 113.02 49.24C112.867 49.5133 112.79 49.84 112.79 50.22C112.79 50.6 112.867 50.9333 113.02 51.22C113.18 51.5067 113.387 51.7267 113.64 51.88C113.9 52.0267 114.173 52.1 114.46 52.1C114.753 52.1 115.027 52.0267 115.28 51.88C115.533 51.7333 115.737 51.52 115.89 51.24C116.05 50.9533 116.13 50.62 116.13 50.24ZM121.357 46.76C121.151 46.76 120.977 46.69 120.837 46.55C120.697 46.41 120.627 46.2367 120.627 46.03C120.627 45.8233 120.697 45.65 120.837 45.51C120.977 45.37 121.151 45.3 121.357 45.3C121.557 45.3 121.727 45.37 121.867 45.51C122.007 45.65 122.077 45.8233 122.077 46.03C122.077 46.2367 122.007 46.41 121.867 46.55C121.727 46.69 121.557 46.76 121.357 46.76ZM121.917 47.49V53H120.777V47.49H121.917ZM127.804 53.09C127.284 53.09 126.814 52.9733 126.394 52.74C125.974 52.5 125.644 52.1667 125.404 51.74C125.164 51.3067 125.044 50.8067 125.044 50.24C125.044 49.68 125.167 49.1833 125.414 48.75C125.661 48.3167 125.997 47.9833 126.424 47.75C126.851 47.5167 127.327 47.4 127.854 47.4C128.381 47.4 128.857 47.5167 129.284 47.75C129.711 47.9833 130.047 48.3167 130.294 48.75C130.541 49.1833 130.664 49.68 130.664 50.24C130.664 50.8 130.537 51.2967 130.284 51.73C130.031 52.1633 129.684 52.5 129.244 52.74C128.811 52.9733 128.331 53.09 127.804 53.09ZM127.804 52.1C128.097 52.1 128.371 52.03 128.624 51.89C128.884 51.75 129.094 51.54 129.254 51.26C129.414 50.98 129.494 50.64 129.494 50.24C129.494 49.84 129.417 49.5033 129.264 49.23C129.111 48.95 128.907 48.74 128.654 48.6C128.401 48.46 128.127 48.39 127.834 48.39C127.541 48.39 127.267 48.46 127.014 48.6C126.767 48.74 126.571 48.95 126.424 49.23C126.277 49.5033 126.204 49.84 126.204 50.24C126.204 50.8333 126.354 51.2933 126.654 51.62C126.961 51.94 127.344 52.1 127.804 52.1Z" fill="#007AD2"/>
<path d="M60.588 18.946C63.1947 18.946 65.2347 19.694 66.708 21.19C68.1813 22.6633 68.918 25.0093 68.918 28.228C68.918 31.4467 68.1813 33.7927 66.708 35.266C65.2347 36.7393 63.1947 37.476 60.588 37.476C58.004 37.476 55.964 36.7393 54.468 35.266C52.9947 33.7927 52.258 31.4467 52.258 28.228C52.258 25.0093 52.9947 22.6633 54.468 21.19C55.964 19.694 58.004 18.946 60.588 18.946ZM60.588 19.626C59.6133 19.626 58.8313 20.34 58.242 21.768C57.6753 23.1733 57.392 25.3267 57.392 28.228C57.392 31.1293 57.6753 33.2827 58.242 34.688C58.8313 36.0933 59.6133 36.796 60.588 36.796C61.5853 36.796 62.3673 36.1047 62.934 34.722C63.5007 33.3167 63.784 31.152 63.784 28.228C63.784 25.304 63.4893 23.1393 62.9 21.734C62.3333 20.3287 61.5627 19.626 60.588 19.626ZM87.7346 40.128C87.7346 41.012 87.8819 41.6127 88.1766 41.93C88.4939 42.27 89.0266 42.44 89.7746 42.44V43.154C87.5986 43.0633 86.1706 43.018 85.4906 43.018C84.8106 43.018 83.2126 43.052 80.6966 43.12L79.7786 43.154V42.44C80.8213 42.44 81.5919 42.2473 82.0906 41.862C82.5893 41.4767 82.8386 40.7853 82.8386 39.788V34.382C82.4533 35.402 81.8866 36.1727 81.1386 36.694C80.3906 37.2153 79.4953 37.476 78.4526 37.476C76.3899 37.476 74.7126 36.694 73.4206 35.13C72.1286 33.566 71.4826 31.2313 71.4826 28.126C71.4826 25.134 72.1513 22.856 73.4886 21.292C74.8486 19.728 76.6619 18.946 78.9286 18.946C79.8806 18.946 80.6853 19.0593 81.3426 19.286C82.0226 19.49 82.6233 19.8413 83.1446 20.34C83.9379 20.3627 84.7426 20.238 85.5586 19.966C86.3746 19.6713 87.0093 19.3087 87.4626 18.878L87.9726 19.15C87.8139 19.7167 87.7346 20.3627 87.7346 21.088V40.128ZM79.8806 36.014C80.5606 36.014 81.1726 35.7647 81.7166 35.266C82.2833 34.7447 82.6573 34.0533 82.8386 33.192V20.68C82.1813 20 81.3086 19.66 80.2206 19.66C77.8179 19.66 76.6166 22.5047 76.6166 28.194C76.6166 30.982 76.8999 32.988 77.4666 34.212C78.0333 35.4133 78.8379 36.014 79.8806 36.014ZM107.861 33.294C107.861 34.3367 108.02 35.096 108.337 35.572C108.677 36.048 109.244 36.286 110.037 36.286V37C109.335 36.932 108.632 36.898 107.929 36.898C105.957 36.898 104.303 37.0567 102.965 37.374V34.314C101.923 36.422 100.098 37.476 97.4913 37.476C95.7913 37.476 94.5559 37.034 93.7853 36.15C93.4226 35.7193 93.1506 35.164 92.9693 34.484C92.8106 33.7813 92.7313 32.8633 92.7313 31.73V23.128C92.7313 22.0853 92.5613 21.326 92.2213 20.85C91.9039 20.374 91.3486 20.136 90.5553 20.136V19.422C91.2579 19.49 91.9606 19.524 92.6633 19.524C94.6353 19.524 96.2899 19.3653 97.6273 19.048V33.124C97.6273 34.076 97.7633 34.79 98.0353 35.266C98.3299 35.742 98.8739 35.98 99.6673 35.98C100.574 35.98 101.345 35.606 101.979 34.858C102.637 34.0873 102.965 33.1467 102.965 32.036V23.128C102.965 22.0853 102.795 21.326 102.455 20.85C102.138 20.374 101.583 20.136 100.789 20.136V19.422C101.515 19.49 102.217 19.524 102.897 19.524C104.869 19.524 106.524 19.3653 107.861 19.048V33.294ZM123.244 18.946C124.264 18.946 125.035 19.252 125.556 19.864C126.078 20.476 126.338 21.2127 126.338 22.074C126.338 22.9127 126.089 23.604 125.59 24.148C125.114 24.6693 124.48 24.93 123.686 24.93C122.916 24.93 122.304 24.7373 121.85 24.352C121.397 23.944 121.17 23.4113 121.17 22.754C121.17 21.666 121.669 20.782 122.666 20.102C122.576 20.0793 122.44 20.068 122.258 20.068C122.032 20.068 121.85 20.0907 121.714 20.136C120.853 20.272 120.116 20.7933 119.504 21.7C118.915 22.6067 118.62 23.536 118.62 24.488V33.498C118.62 34.5407 118.87 35.266 119.368 35.674C119.89 36.082 120.706 36.286 121.816 36.286V37C121.499 37 121.238 36.9887 121.034 36.966C118.722 36.898 117.181 36.864 116.41 36.864C115.798 36.864 114.404 36.898 112.228 36.966C112.047 36.9887 111.82 37 111.548 37V36.286C112.364 36.286 112.931 36.116 113.248 35.776C113.566 35.4133 113.724 34.7673 113.724 33.838V23.128C113.724 22.0853 113.566 21.326 113.248 20.85C112.931 20.374 112.364 20.136 111.548 20.136V19.422C112.274 19.49 112.976 19.524 113.656 19.524C115.674 19.524 117.328 19.3653 118.62 19.048V22.21C119.051 21.2353 119.674 20.4533 120.49 19.864C121.306 19.252 122.224 18.946 123.244 18.946ZM141.428 19.524C142.561 19.524 143.434 19.49 144.046 19.422V20.102C143.57 20.238 143.139 20.5327 142.754 20.986C142.391 21.4167 142.04 22.0967 141.7 23.026L135.614 40.128C135.16 41.3067 134.662 42.1113 134.118 42.542C133.46 43.1087 132.474 43.392 131.16 43.392C130.208 43.392 129.346 43.154 128.576 42.678C127.828 42.2247 127.454 41.556 127.454 40.672C127.454 39.9693 127.703 39.4027 128.202 38.972C128.7 38.564 129.358 38.36 130.174 38.36C130.944 38.36 131.556 38.5413 132.01 38.904C132.486 39.2893 132.724 39.822 132.724 40.502C132.724 40.978 132.576 41.4087 132.282 41.794C131.987 42.202 131.568 42.508 131.024 42.712C131.182 42.7347 131.443 42.746 131.806 42.746C133.211 42.746 134.242 41.8507 134.9 40.06L135.444 38.428L128.236 22.04C127.873 21.2693 127.522 20.7593 127.182 20.51C126.842 20.2607 126.49 20.136 126.128 20.136V19.422C127.624 19.558 129.176 19.626 130.786 19.626C132.123 19.626 133.698 19.558 135.512 19.422V20.136C134.786 20.136 134.242 20.1927 133.88 20.306C133.54 20.3967 133.37 20.6573 133.37 21.088C133.37 21.3373 133.449 21.6547 133.608 22.04L137.756 32.07L140.102 25.542C140.464 24.4767 140.646 23.57 140.646 22.822C140.646 21.1673 139.807 20.2607 138.13 20.102V19.422C139.195 19.49 140.294 19.524 141.428 19.524Z" fill="#007AD2"/>
<defs>
<linearGradient id="paint0_linear" x1="21.9879" y1="11" x2="15.4696" y2="51" gradientUnits="userSpaceOnUse">
<stop stop-color="#62B3EE"/>
<stop offset="1" stop-color="#0083E2" stop-opacity="0.44"/>
</linearGradient>
</defs>
</svg>
